<svg width="32" height="37" viewBox="0 0 32 37" fill="none" xmlns="http://www.w3.org/2000/svg">
<g filter="url(#filter0_d)">
<path d="M21.7734 4.81335C20.065 3.36138 17.8713 2.60823 15.6314 2.70465C13.3915 2.80107 11.2706 3.73995 9.69337 5.33335C8.32077 6.71002 7.43785 8.49908 7.18014 10.4259C6.92242 12.3528 7.30413 14.311 8.2667 16V16L11.7467 22.0133C11.9244 21.4011 12.1798 20.8141 12.5067 20.2667L12.68 20C13.7848 18.334 15.2298 16.9208 16.92 15.8533C17.4134 15.5333 17.9467 15.2 18.52 14.88C19.0934 14.56 19.6 14.2933 20.1734 14.0133C21.8367 13.2443 23.2774 12.0652 24.36 10.5867L24.7334 9.96002C24.3593 7.95829 23.3154 6.14334 21.7734 4.81335V4.81335ZM16 12.6133C15.47 12.6266 14.948 12.4815 14.5008 12.1967C14.0536 11.9119 13.7014 11.5002 13.4893 11.0142C13.2772 10.5283 13.2148 9.99011 13.3101 9.46851C13.4053 8.94692 13.6539 8.46555 14.024 8.08592C14.3942 7.70628 14.8691 7.4456 15.3881 7.33719C15.9071 7.22877 16.4467 7.27755 16.9379 7.47727C17.429 7.677 17.8495 8.01861 18.1456 8.45847C18.4416 8.89833 18.5999 9.41646 18.6 9.94668C18.6089 10.2937 18.5483 10.639 18.4216 10.9621C18.2949 11.2853 18.1048 11.5799 17.8625 11.8284C17.6202 12.0769 17.3305 12.2744 17.0107 12.4093C16.6908 12.5441 16.3472 12.6135 16 12.6133V12.6133Z" fill="#195B9E"/>
<path d="M24.64 13.64C24.4445 14.4634 24.1301 15.2539 23.7067 15.9867L22.84 17.4934L22.3467 17.8L22.08 17.9734C21.1187 18.5506 20.1886 19.1781 19.2934 19.8534C17.6547 20.9927 16.455 22.6582 15.8934 24.5734C15.6568 25.8582 15.5274 27.1605 15.5067 28.4667L14.1734 26.2267L14.08 26.04C13.8172 25.5069 13.6631 24.9267 13.6267 24.3334C13.5806 23.191 13.893 22.0627 14.52 21.1067C15.8179 19.2577 17.5542 17.7596 19.5734 16.7467C20.0534 16.4667 21.2667 15.8667 21.3334 15.8267C22.5269 15.2551 23.6316 14.5141 24.6134 13.6267L24.64 13.64Z" fill="#5BBA9A"/>
<path d="M21.64 19.56L16.6133 28.24C16.6402 27.1082 16.7561 25.9803 16.96 24.8667C17.187 24.0259 17.5766 23.2377 18.1067 22.5467C18.6565 21.8627 19.2929 21.2531 20 20.7333C20.52 20.32 21.0933 19.9333 21.6667 19.56H21.64Z" fill="#5BBA9A"/>
</g>
<defs>
<filter id="filter0_d" x="3.10175" y="2.69641" width="25.6316" height="33.7703" filterUnits="userSpaceOnUse" color-interpolation-filters="sRGB">
<feFlood flood-opacity="0" result="BackgroundImageFix"/>
<feColorMatrix in="SourceAlpha" type="matrix" values="0 0 0 0 0 0 0 0 0 0 0 0 0 0 0 0 0 0 127 0"/>
<feOffset dy="4"/>
<feGaussianBlur stdDeviation="2"/>
<feColorMatrix type="matrix" values="0 0 0 0 0 0 0 0 0 0 0 0 0 0 0 0 0 0 0.25 0"/>
<feBlend mode="normal" in2="BackgroundImageFix" result="effect1_dropShadow"/>
<feBlend mode="normal" in="SourceGraphic" in2="effect1_dropShadow" result="shape"/>
</filter>
</defs>
</svg>
