<svg width="58" height="58" viewBox="0 0 58 58" fill="none" xmlns="http://www.w3.org/2000/svg">
<g filter="url(#filter0_d)">
<circle cx="29" cy="25" r="25" fill="#5BBA9A"/>
<mask id="mask0" mask-type="alpha" maskUnits="userSpaceOnUse" x="13" y="9" width="32" height="32">
<rect x="13" y="9" width="32" height="32" fill="#C4C4C4"/>
</mask>
<g mask="url(#mask0)">
<path d="M30 20H28V24H24V26H28V30H30V26H34V24H30V20ZM29 15C23.48 15 19 19.48 19 25C19 30.52 23.48 35 29 35C34.52 35 39 30.52 39 25C39 19.48 34.52 15 29 15ZM29 33C24.59 33 21 29.41 21 25C21 20.59 24.59 17 29 17C33.41 17 37 20.59 37 25C37 29.41 33.41 33 29 33Z" fill="white"/>
</g>
</g>
<defs>
<filter id="filter0_d" x="0" y="0" width="58" height="58" filterUnits="userSpaceOnUse" color-interpolation-filters="sRGB">
<feFlood flood-opacity="0" result="BackgroundImageFix"/>
<feColorMatrix in="SourceAlpha" type="matrix" values="0 0 0 0 0 0 0 0 0 0 0 0 0 0 0 0 0 0 127 0"/>
<feOffset dy="4"/>
<feGaussianBlur stdDeviation="2"/>
<feColorMatrix type="matrix" values="0 0 0 0 0 0 0 0 0 0 0 0 0 0 0 0 0 0 0.12 0"/>
<feBlend mode="normal" in2="BackgroundImageFix" result="effect1_dropShadow"/>
<feBlend mode="normal" in="SourceGraphic" in2="effect1_dropShadow" result="shape"/>
</filter>
</defs>
</svg>
